<?xml version="1.0" encoding="UTF-8"?>
<svg xmlns="http://www.w3.org/2000/svg" xmlns:xlink="http://www.w3.org/1999/xlink" width="24px" height="18px" viewBox="0 0 24 18" version="1.1">
<g id="surface1">
<path style=" stroke:none;fill-rule:nonzero;fill:rgb(0%,0%,0%);fill-opacity:1;" d="M 10.378906 0.921875 C 9.5 1.425781 8.761719 1.863281 8.734375 1.894531 C 8.636719 2 8.675781 2.167969 8.808594 2.222656 C 8.859375 2.246094 9.394531 2.25 11.976562 2.25 C 13.6875 2.25 15.117188 2.246094 15.148438 2.238281 C 15.183594 2.230469 15.234375 2.203125 15.265625 2.171875 C 15.339844 2.09375 15.339844 1.976562 15.269531 1.894531 C 15.214844 1.835938 12.039062 0 11.996094 0 C 11.984375 0 11.253906 0.414062 10.378906 0.921875 Z M 10.378906 0.921875 "/>
<path style=" stroke:none;fill-rule:nonzero;fill:rgb(0%,0%,0%);fill-opacity:1;" d="M 0 3.3125 L 0 5.273438 L 0.0820312 5.261719 C 0.152344 5.25 8.414062 4.335938 9.65625 4.199219 C 9.9375 4.167969 10.199219 4.136719 10.234375 4.132812 L 10.296875 4.125 L 10.285156 3.3125 C 10.277344 2.867188 10.265625 2.5 10.265625 2.496094 C 10.261719 2.492188 9.851562 2.445312 9.355469 2.390625 C 8.855469 2.335938 7.617188 2.195312 6.601562 2.082031 C 3.855469 1.773438 2.863281 1.664062 1.746094 1.539062 C 1.195312 1.476562 0.59375 1.40625 0.417969 1.386719 C 0.238281 1.367188 0.0703125 1.351562 0.046875 1.351562 L 0 1.351562 Z M 0 3.3125 "/>
<path style=" stroke:none;fill-rule:nonzero;fill:rgb(0%,0%,0%);fill-opacity:1;" d="M 18.785156 1.917969 L 13.726562 2.484375 L 13.726562 3.304688 C 13.726562 4.097656 13.726562 4.125 13.761719 4.125 C 13.78125 4.125 14.09375 4.160156 14.457031 4.199219 C 14.824219 4.242188 15.726562 4.34375 16.460938 4.425781 C 17.199219 4.507812 18.785156 4.683594 19.988281 4.820312 C 21.1875 4.953125 22.546875 5.105469 23.007812 5.15625 C 23.464844 5.207031 23.875 5.253906 23.921875 5.257812 L 24 5.269531 L 24 1.351562 L 23.921875 1.351562 C 23.875 1.355469 21.5625 1.609375 18.785156 1.917969 Z M 18.785156 1.917969 "/>
<path style=" stroke:none;fill-rule:nonzero;fill:rgb(0%,0%,0%);fill-opacity:1;" d="M 8.644531 4.40625 C 8.515625 4.460938 8.433594 4.578125 8.433594 4.707031 C 8.4375 4.847656 8.542969 4.96875 8.699219 5.003906 C 8.746094 5.015625 8.886719 5.023438 9.007812 5.023438 L 9.234375 5.023438 L 8.203125 11.441406 C 7.632812 14.972656 7.160156 17.890625 7.15625 17.929688 L 7.144531 18 L 16.855469 18 L 16.84375 17.929688 C 16.839844 17.890625 16.367188 14.972656 15.796875 11.445312 L 14.765625 5.035156 L 15.039062 5.023438 C 15.328125 5.011719 15.351562 5.007812 15.445312 4.9375 C 15.613281 4.8125 15.605469 4.566406 15.425781 4.449219 L 15.347656 4.398438 L 12.019531 4.394531 C 9.957031 4.390625 8.671875 4.398438 8.644531 4.40625 Z M 8.644531 4.40625 "/>
</g>
</svg>
